<svg fill="#000000" xmlns="http://www.w3.org/2000/svg" xmlns:xlink="http://www.w3.org/1999/xlink" version="1.1" x="0px" y="0px" viewBox="0 0 100 100" style="enable-background:new 0 0 100 100;" xml:space="preserve"><style type="text/css">
	.st0{display:none;}
	.st1{display:inline;}
</style><g class="st0"><g class="st1"><polygon points="17,53 17,47 11,47 11,53 11,59 17,59   "/><polygon points="23,41 23,35 17,35 17,41 17,47 23,47   "/><polygon points="47,23 47,17 41,17 35,17 35,23 41,23   "/><polygon points="59,17 59,11 53,11 47,11 47,17 53,17   "/><polygon points="89,5 83,5 77,5 71,5 65,5 59,5 59,11 65,11 71,11 77,11 83,11 89,11 89,17 89,23 83,23 77,23 71,23 65,23 59,23     59,29 65,29 71,29 77,29 83,29 89,29 89,35 89,41 83,41 77,41 71,41 65,41 59,41 59,47 65,47 71,47 77,47 83,47 89,47 89,53     89,59 83,59 77,59 71,59 71,65 77,65 83,65 89,65 95,65 95,59 95,53 95,47 95,41 95,35 95,29 95,23 95,17 95,11 95,5   "/><rect x="23" y="29" width="6" height="6"/><rect x="29" y="23" width="6" height="6"/><polygon points="35,53 35,47 29,47 29,53 29,59 35,59   "/><polygon points="47,29 47,35 53,35 59,35 59,29 53,29   "/><rect x="35" y="41" width="6" height="6"/><rect x="41" y="35" width="6" height="6"/><rect x="47" y="53" width="6" height="6"/><rect x="53" y="47" width="6" height="6"/><polygon points="59,77 59,83 59,89 53,89 47,89 47,83 47,77 47,71 47,65 47,59 41,59 41,65 41,71 41,77 41,83 41,89 35,89 29,89     29,83 29,77 29,71 29,65 29,59 23,59 23,65 23,71 23,77 23,83 23,89 17,89 11,89 11,83 11,77 11,71 11,65 11,59 5,59 5,65 5,71     5,77 5,83 5,89 5,95 11,95 17,95 23,95 29,95 35,95 41,95 47,95 53,95 59,95 65,95 65,89 65,83 65,77 65,71 59,71   "/><rect x="65" y="65" width="6" height="6"/></g></g><g class="st0"><g class="st1"><polygon points="83,47 83,41 89,41 95,41 95,35 89,35 83,35 77,35 77,41 77,47 77,53 77,59 77,65 83,65 89,65 95,65 95,59 89,59     83,59 83,53   "/><polygon points="23,53 23,47 23,41 23,35 17,35 11,35 5,35 5,41 11,41 17,41 17,47 17,53 17,59 11,59 5,59 5,65 11,65 17,65     23,65 23,59   "/><polygon points="47,23 53,23 59,23 65,23 65,17 65,11 65,5 59,5 59,11 59,17 53,17 47,17 41,17 41,11 41,5 35,5 35,11 35,17     35,23 41,23   "/><polygon points="53,77 47,77 41,77 35,77 35,83 35,89 35,95 41,95 41,89 41,83 47,83 53,83 59,83 59,89 59,95 65,95 65,89 65,83     65,77 59,77   "/><polygon points="71,29 71,35 77,35 77,29 77,23 71,23 65,23 65,29   "/><rect x="77" y="17" width="6" height="6"/><rect x="83" y="11" width="6" height="6"/><polygon points="29,71 29,65 23,65 23,71 23,77 29,77 35,77 35,71   "/><rect x="17" y="77" width="6" height="6"/><rect x="11" y="83" width="6" height="6"/><polygon points="29,29 35,29 35,23 29,23 23,23 23,29 23,35 29,35   "/><rect x="17" y="17" width="6" height="6"/><rect x="11" y="11" width="6" height="6"/><polygon points="71,71 65,71 65,77 71,77 77,77 77,71 77,65 71,65   "/><rect x="77" y="77" width="6" height="6"/><rect x="83" y="83" width="6" height="6"/></g></g><g class="st0"><g class="st1"><polygon points="47,53 53,53 59,53 65,53 65,47 59,47 53,47 47,47 47,41 47,35 47,29 41,29 41,35 41,41 41,47 35,47 35,53 41,53       "/><polygon points="59,29 65,29 71,29 71,23 65,23 59,23 53,23 47,23 47,29 53,29   "/><rect x="29" y="71" width="6" height="6"/><rect x="65" y="71" width="6" height="6"/><rect x="29" y="53" width="6" height="6"/><rect x="65" y="53" width="6" height="6"/><polygon points="77,89 71,89 65,89 59,89 53,89 47,89 41,89 35,89 29,89 23,89 17,89 11,89 11,95 17,95 23,95 29,95 35,95 41,95     47,95 53,95 59,95 65,95 71,95 77,95 83,95 89,95 89,89 83,89   "/><polygon points="23,71 29,71 29,65 29,59 23,59 23,65 17,65 11,65 11,71 17,71   "/><rect x="35" y="17" width="6" height="6"/><rect x="29" y="11" width="6" height="6"/><polygon points="71,71 77,71 83,71 89,71 89,65 83,65 77,65 77,59 71,59 71,65   "/><rect x="77" y="17" width="6" height="6"/><rect x="83" y="11" width="6" height="6"/><polygon points="65,11 65,5 59,5 59,11 59,17 65,17   "/><polygon points="89,77 89,83 89,89 95,89 95,83 95,77 95,71 89,71   "/><polygon points="71,41 71,47 71,53 77,53 77,47 77,41 77,35 77,29 71,29 71,35   "/><polygon points="89,35 83,35 83,41 89,41 95,41 95,35   "/><polygon points="35,41 35,35 29,35 23,35 23,41 29,41   "/><polygon points="11,77 11,71 5,71 5,77 5,83 5,89 11,89 11,83   "/></g></g><g class="st0"><g class="st1"><rect x="44" y="59" width="6" height="6"/><rect x="50" y="65" width="6" height="6"/><rect x="50" y="29" width="6" height="6"/><polygon points="62,89 56,89 50,89 44,89 38,89 38,95 44,95 50,95 56,95 62,95 68,95 74,95 74,89 68,89   "/><polygon points="50,11 56,11 62,11 68,11 74,11 74,5 68,5 62,5 56,5 50,5 44,5 38,5 38,11 44,11   "/><polygon points="62,77 68,77 74,77 80,77 86,77 86,83 92,83 92,77 92,71 86,71 80,71 74,71 68,71 62,71 56,71 56,77   "/><polygon points="74,83 74,89 80,89 86,89 86,83 80,83   "/><rect x="20" y="77" width="6" height="6"/><rect x="20" y="17" width="6" height="6"/><polygon points="86,17 86,23 80,23 74,23 68,23 62,23 56,23 56,29 62,29 68,29 74,29 80,29 86,29 92,29 92,23 92,17   "/><polygon points="20,65 14,65 14,71 14,77 20,77 20,71   "/><polygon points="20,29 20,23 14,23 14,29 14,35 20,35   "/><polygon points="14,53 14,47 14,41 14,35 8,35 8,41 8,47 8,53 8,59 8,65 14,65 14,59   "/><polygon points="38,47 38,53 38,59 44,59 44,53 44,47 44,41 38,41   "/><rect x="44" y="35" width="6" height="6"/><polygon points="32,83 26,83 26,89 32,89 38,89 38,83   "/><polygon points="80,17 86,17 86,11 80,11 74,11 74,17   "/><polygon points="38,17 38,11 32,11 26,11 26,17 32,17   "/></g></g><g class="st0"><g class="st1"><polygon points="23,65 23,59 23,53 17,53 17,59 17,65 17,71 17,77 23,77 23,71   "/><polygon points="65,41 71,41 71,35 71,29 65,29 65,35   "/><polygon points="59,29 65,29 65,23 65,17 59,17 59,23   "/><rect x="29" y="83" width="6" height="6"/><polygon points="53,89 47,89 41,89 35,89 35,95 41,95 47,95 53,95 59,95 65,95 65,89 59,89   "/><rect x="47" y="5" width="6" height="6"/><polygon points="41,23 41,17 35,17 35,23 35,29 41,29   "/><polygon points="35,35 35,29 29,29 29,35 29,41 35,41   "/><polygon points="29,47 29,41 23,41 23,47 23,53 29,53   "/><rect x="23" y="77" width="6" height="6"/><rect x="41" y="11" width="6" height="6"/><polygon points="77,53 77,59 77,65 77,71 77,77 83,77 83,71 83,65 83,59 83,53   "/><rect x="53" y="11" width="6" height="6"/><rect x="71" y="77" width="6" height="6"/><polygon points="71,53 77,53 77,47 77,41 71,41 71,47   "/><rect x="65" y="83" width="6" height="6"/></g></g><g><g><rect x="11" y="47" width="6" height="6"/><rect x="83" y="71" width="6" height="6"/><polygon points="11,59 11,53 5,53 5,59 5,65 5,71 11,71 11,65   "/><rect x="83" y="47" width="6" height="6"/><rect x="11" y="71" width="6" height="6"/><polygon points="71,77 65,77 59,77 53,77 47,77 41,77 35,77 29,77 23,77 17,77 17,83 23,83 29,83 35,83 41,83 47,83 53,83 59,83     65,83 71,83 77,83 83,83 83,77 77,77   "/><rect x="59" y="23" width="6" height="6"/><rect x="35" y="47" width="6" height="6"/><rect x="59" y="47" width="6" height="6"/><polygon points="65,41 65,47 71,47 77,47 83,47 83,41 77,41 71,41 71,35 71,29 65,29 65,35   "/><polygon points="53,23 59,23 59,17 53,17 47,17 41,17 41,23 47,23   "/><rect x="35" y="23" width="6" height="6"/><polygon points="89,53 89,59 89,65 89,71 95,71 95,65 95,59 95,53   "/><polygon points="29,47 35,47 35,41 35,35 35,29 29,29 29,35 29,41 23,41 17,41 17,47 23,47   "/></g></g><g class="st0"><g class="st1"><rect x="11" y="62" width="6" height="6"/><rect x="83" y="86" width="6" height="6"/><polygon points="11,74 11,68 5,68 5,74 5,80 5,86 11,86 11,80   "/><rect x="83" y="62" width="6" height="6"/><rect x="11" y="86" width="6" height="6"/><polygon points="71,92 65,92 59,92 53,92 47,92 41,92 35,92 29,92 23,92 17,92 17,98 23,98 29,98 35,98 41,98 47,98 53,98 59,98     65,98 71,98 77,98 83,98 83,92 77,92   "/><rect x="59" y="38" width="6" height="6"/><rect x="35" y="62" width="6" height="6"/><rect x="59" y="62" width="6" height="6"/><polygon points="65,56 65,62 71,62 77,62 83,62 83,56 77,56 71,56 71,50 71,44 65,44 65,50   "/><polygon points="53,38 59,38 59,32 53,32 47,32 41,32 41,38 47,38   "/><rect x="35" y="38" width="6" height="6"/><polygon points="89,74 89,80 89,86 95,86 95,80 95,74 95,68 89,68   "/><polygon points="29,62 35,62 35,56 35,50 35,44 29,44 29,50 29,56 23,56 17,56 17,62 23,62   "/><polygon points="77,14 77,8 71,8 71,14 71,20 77,20 83,20 83,14   "/><rect x="29" y="20" width="6" height="6"/><rect x="83" y="20" width="6" height="6"/><rect x="83" y="44" width="6" height="6"/><rect x="47" y="20" width="6" height="6"/><rect x="65" y="20" width="6" height="6"/><polygon points="41,14 35,14 35,20 41,20 47,20 47,14 47,8 41,8   "/><polygon points="23,32 23,38 29,38 29,32 29,26 23,26   "/><polygon points="89,26 89,32 89,38 89,44 95,44 95,38 95,32 95,26   "/><polygon points="65,2 59,2 53,2 47,2 47,8 53,8 59,8 65,8 71,8 71,2   "/></g></g><g class="st0"><g class="st1"><rect x="26" y="77" width="6" height="6"/><polygon points="14,77 8,77 8,83 8,89 14,89 14,83   "/><rect x="56" y="77" width="6" height="6"/><rect x="26" y="59" width="6" height="6"/><polygon points="62,89 56,89 50,89 44,89 38,89 32,89 26,89 20,89 14,89 14,95 20,95 26,95 32,95 38,95 44,95 50,95 56,95 62,95     68,95 74,95 74,89 68,89   "/><polygon points="44,59 50,59 56,59 56,65 62,65 62,59 68,59 68,53 62,53 56,53 50,53 44,53 44,47 44,41 44,35 44,29 38,29 38,35     38,41 38,47 38,53 32,53 32,59 38,59   "/><polygon points="56,29 62,29 68,29 68,23 62,23 56,23 50,23 44,23 44,29 50,29   "/><polygon points="26,77 26,71 26,65 20,65 20,71 14,71 14,77 20,77   "/><rect x="74" y="17" width="6" height="6"/><rect x="80" y="11" width="6" height="6"/><polygon points="62,77 68,77 74,77 74,71 68,71 68,65 62,65 62,71   "/><polygon points="56,11 56,5 50,5 50,11 50,17 56,17   "/><polygon points="68,41 68,47 68,53 74,53 74,47 74,41 74,35 74,29 68,29 68,35   "/><polygon points="86,35 80,35 80,41 86,41 92,41 92,35   "/><polygon points="32,41 32,35 26,35 20,35 20,41 26,41   "/><polygon points="74,83 74,89 80,89 80,83 80,77 74,77   "/><rect x="26" y="11" width="6" height="6"/><rect x="32" y="17" width="6" height="6"/></g></g><g class="st0"><g class="st1"><rect x="11" y="32" width="6" height="6"/><rect x="83" y="56" width="6" height="6"/><polygon points="5,44 5,50 5,56 11,56 11,50 11,44 11,38 5,38   "/><rect x="83" y="32" width="6" height="6"/><rect x="11" y="56" width="6" height="6"/><rect x="17" y="62" width="6" height="6"/><rect x="77" y="62" width="6" height="6"/><rect x="59" y="8" width="6" height="6"/><rect x="35" y="32" width="6" height="6"/><rect x="59" y="32" width="6" height="6"/><polygon points="77,26 71,26 71,20 71,14 65,14 65,20 65,26 65,32 71,32 77,32 83,32 83,26   "/><polygon points="53,2 47,2 41,2 41,8 47,8 53,8 59,8 59,2   "/><rect x="35" y="8" width="6" height="6"/><polygon points="89,38 89,44 89,50 89,56 95,56 95,50 95,44 95,38   "/><polygon points="29,20 29,26 23,26 17,26 17,32 23,32 29,32 35,32 35,26 35,20 35,14 29,14   "/><polygon points="47,86 47,80 41,80 35,80 35,74 35,68 29,68 29,74 29,80 29,86 35,86 41,86 41,92 41,98 47,98 53,98 53,92 47,92       "/><rect x="53" y="86" width="6" height="6"/><polygon points="53,74 53,80 59,80 59,86 65,86 65,80 65,74 59,74 59,68 53,68   "/><polygon points="59,44 53,44 47,44 41,44 35,44 35,50 35,56 35,62 35,68 41,68 41,62 41,56 41,50 47,50 53,50 59,50 65,50 65,56     65,62 71,62 71,56 71,50 71,44 65,44   "/><rect x="59" y="62" width="6" height="6"/></g></g><g class="st0"><g class="st1"><rect x="11" y="32" width="6" height="6"/><rect x="83" y="56" width="6" height="6"/><polygon points="11,44 11,38 5,38 5,44 5,50 5,56 11,56 11,50   "/><rect x="83" y="32" width="6" height="6"/><rect x="11" y="56" width="6" height="6"/><polygon points="71,62 65,62 59,62 53,62 47,62 41,62 35,62 29,62 23,62 17,62 17,68 23,68 29,68 35,68 41,68 47,68 53,68 59,68     65,68 71,68 77,68 83,68 83,62 77,62   "/><rect x="59" y="8" width="6" height="6"/><rect x="35" y="32" width="6" height="6"/><rect x="59" y="32" width="6" height="6"/><polygon points="65,26 65,32 71,32 77,32 83,32 83,26 77,26 71,26 71,20 71,14 65,14 65,20   "/><polygon points="53,8 59,8 59,2 53,2 47,2 41,2 41,8 47,8   "/><rect x="35" y="8" width="6" height="6"/><polygon points="89,38 89,44 89,50 89,56 95,56 95,50 95,44 95,38   "/><polygon points="29,32 35,32 35,26 35,20 35,14 29,14 29,20 29,26 23,26 17,26 17,32 23,32   "/><polygon points="23,80 23,74 17,74 11,74 11,80 17,80   "/><polygon points="11,92 11,98 17,98 23,98 23,92 17,92   "/><polygon points="11,80 5,80 5,86 5,92 11,92 11,86   "/><polygon points="23,86 23,92 29,92 29,86 29,80 23,80   "/><polygon points="53,80 53,74 47,74 41,74 41,80 47,80   "/><polygon points="41,92 41,98 47,98 53,98 53,92 47,92   "/><polygon points="41,80 35,80 35,86 35,92 41,92 41,86   "/><polygon points="53,86 53,92 59,92 59,86 59,80 53,80   "/><polygon points="83,80 83,74 77,74 71,74 71,80 77,80   "/><polygon points="71,92 71,98 77,98 83,98 83,92 77,92   "/><polygon points="71,80 65,80 65,86 65,92 71,92 71,86   "/><polygon points="83,86 83,92 89,92 89,86 89,80 83,80   "/></g></g><g class="st0"><g class="st1"><rect x="11" y="32" width="6" height="6"/><rect x="83" y="56" width="6" height="6"/><polygon points="11,44 11,38 5,38 5,44 5,50 5,56 11,56 11,50   "/><rect x="83" y="32" width="6" height="6"/><rect x="11" y="56" width="6" height="6"/><polygon points="71,62 65,62 59,62 53,62 47,62 41,62 35,62 29,62 23,62 17,62 17,68 23,68 29,68 35,68 41,68 47,68 53,68 59,68     65,68 71,68 77,68 83,68 83,62 77,62   "/><rect x="59" y="8" width="6" height="6"/><rect x="35" y="32" width="6" height="6"/><rect x="59" y="32" width="6" height="6"/><polygon points="65,26 65,32 71,32 77,32 83,32 83,26 77,26 71,26 71,20 71,14 65,14 65,20   "/><polygon points="53,8 59,8 59,2 53,2 47,2 41,2 41,8 47,8   "/><rect x="35" y="8" width="6" height="6"/><polygon points="89,38 89,44 89,50 89,56 95,56 95,50 95,44 95,38   "/><polygon points="29,32 35,32 35,26 35,20 35,14 29,14 29,20 29,26 23,26 17,26 17,32 23,32   "/><rect x="11" y="74" width="6" height="6"/><rect x="5" y="80" width="6" height="6"/><rect x="29" y="74" width="6" height="6"/><rect x="23" y="80" width="6" height="6"/><rect x="17" y="86" width="6" height="6"/><rect x="11" y="92" width="6" height="6"/><rect x="47" y="74" width="6" height="6"/><rect x="41" y="80" width="6" height="6"/><rect x="35" y="86" width="6" height="6"/><rect x="29" y="92" width="6" height="6"/><rect x="65" y="74" width="6" height="6"/><rect x="59" y="80" width="6" height="6"/><rect x="53" y="86" width="6" height="6"/><rect x="47" y="92" width="6" height="6"/><rect x="83" y="74" width="6" height="6"/><rect x="77" y="80" width="6" height="6"/><rect x="71" y="86" width="6" height="6"/><rect x="65" y="92" width="6" height="6"/></g></g><g class="st0"><g class="st1"><polygon points="32,83 32,77 32,71 32,65 32,59 26,59 20,59 20,53 20,47 20,41 14,41 14,47 14,53 14,59 14,65 20,65 26,65 26,71     26,77 26,83 26,89 26,95 32,95 38,95 38,89 32,89   "/><rect x="74" y="17" width="6" height="6"/><polygon points="80,5 74,5 68,5 62,5 56,5 50,5 44,5 38,5 32,5 26,5 26,11 26,17 26,23 32,23 32,17 32,11 38,11 44,11 50,11     56,11 62,11 68,11 74,11 80,11 80,17 86,17 86,11 86,5   "/><polygon points="26,35 26,29 26,23 20,23 20,29 20,35 20,41 26,41   "/><rect x="68" y="23" width="6" height="6"/><rect x="62" y="29" width="6" height="6"/><polygon points="50,47 44,47 44,53 50,53 56,53 62,53 68,53 68,59 74,59 74,53 74,47 68,47 62,47 56,47 56,41 50,41   "/><rect x="56" y="35" width="6" height="6"/><rect x="62" y="59" width="6" height="6"/><rect x="38" y="83" width="6" height="6"/><rect x="44" y="77" width="6" height="6"/><rect x="50" y="71" width="6" height="6"/><rect x="56" y="65" width="6" height="6"/></g></g></svg>