<svg width='200' height='200' fill="#000000" xmlns="http://www.w3.org/2000/svg" xmlns:xlink="http://www.w3.org/1999/xlink" version="1.1" x="0px" y="0px" viewBox="0 0 100 100" enable-background="new 0 0 100 100" xml:space="preserve"><path d="M95,62.28v24.55h-8.17V95H13.17v-8.17H5V62.28h8.17v-8.19h8.2v8.19h57.26v-8.19h8.2v8.19H95z M78.63,54.09v-8.18h-8.17v8.18  H78.63z M78.63,5v24.54h-8.17v16.37h-8.18V29.54H37.72v16.37h-8.18V29.54h-8.17V5H78.63z M70.46,13.17h-8.18h-8.19h-8.18h-8.19  h-8.18v8.2h8.18h8.19h8.18h8.19h8.18V13.17z M29.54,45.91h-8.17v8.18h8.17V45.91z"/></svg>