<svg fill="#000000" xmlns="http://www.w3.org/2000/svg" xmlns:xlink="http://www.w3.org/1999/xlink" xmlns:sketch="http://www.bohemiancoding.com/sketch/ns" viewBox="0 0 91 91" version="1.1" x="0px" y="0px"><title>rect13406</title><desc>Created with Sketch.</desc><g stroke="none" stroke-width="1" fill="none" fill-rule="evenodd" sketch:type="MSPage"><path d="M50.1842,10.47 L40.1842,10.47 L40.1842,0.47 L50.1842,0.47 L50.1842,10.47 Z M40.1842,10.47 L30.1842,10.47 L30.1842,0.47 L40.1842,0.47 L40.1842,10.47 Z M30.1842,10.47 L20.1842,10.47 L20.1842,0.47 L30.1842,0.47 L30.1842,10.47 Z M20.1842,10.47 L10.1842,10.47 L10.1842,0.47 L20.1842,0.47 L20.1842,10.47 Z M10.1842,10.47 L0.1842,10.47 L0.1842,0.47 L10.1842,0.47 L10.1842,10.47 Z M10.1842,20.47 L0.1842,20.47 L0.1842,10.47 L10.1842,10.47 L10.1842,20.47 Z M10.1842,30.47 L0.1842,30.47 L0.1842,20.47 L10.1842,20.47 L10.1842,30.47 Z M10.1842,40.47 L0.1842,40.47 L0.1842,30.47 L10.1842,30.47 L10.1842,40.47 Z M20.1842,50.47 L10.1842,50.47 L10.1842,40.47 L20.1842,40.47 L20.1842,50.47 Z M20.1842,60.47 L10.1842,60.47 L10.1842,50.47 L20.1842,50.47 L20.1842,60.47 Z M30.1842,70.47 L20.1842,70.47 L20.1842,60.47 L30.1842,60.47 L30.1842,70.47 Z M40.1842,80.47 L30.1842,80.47 L30.1842,70.47 L40.1842,70.47 L40.1842,80.47 Z M50.1842,90.47 L40.1842,90.47 L40.1842,80.47 L50.1842,80.47 L50.1842,90.47 Z M60.1842,80.47 L50.1842,80.47 L50.1842,70.47 L60.1842,70.47 L60.1842,80.47 Z M70.1842,70.47 L60.1842,70.47 L60.1842,60.47 L70.1842,60.47 L70.1842,70.47 Z M80.1842,60.47 L70.1842,60.47 L70.1842,50.47 L80.1842,50.47 L80.1842,60.47 Z M80.1842,50.47 L70.1842,50.47 L70.1842,40.47 L80.1842,40.47 L80.1842,50.47 Z M90.1842,40.47 L80.1842,40.47 L80.1842,30.47 L90.1842,30.47 L90.1842,40.47 Z M90.1842,30.47 L80.1842,30.47 L80.1842,20.47 L90.1842,20.47 L90.1842,30.47 Z M90.1842,20.47 L80.1842,20.47 L80.1842,10.47 L90.1842,10.47 L90.1842,20.47 Z M90.1842,10.47 L80.1842,10.47 L80.1842,0.47 L90.1842,0.47 L90.1842,10.47 Z M80.1842,10.47 L70.1842,10.47 L70.1842,0.47 L80.1842,0.47 L80.1842,10.47 Z M70.1842,10.47 L60.1842,10.47 L60.1842,0.47 L70.1842,0.47 L70.1842,10.47 Z M60.1842,10.47 L50.1842,10.47 L50.1842,0.47 L60.1842,0.47 L60.1842,10.47 Z M70.1842,50.47 L60.1842,50.47 L60.1842,40.47 L70.1842,40.47 L70.1842,50.47 Z M70.1842,60.47 L60.1842,60.47 L60.1842,50.47 L70.1842,50.47 L70.1842,60.47 Z M60.1842,60.47 L50.1842,60.47 L50.1842,50.47 L60.1842,50.47 L60.1842,60.47 Z M60.1842,70.47 L50.1842,70.47 L50.1842,60.47 L60.1842,60.47 L60.1842,70.47 Z M50.1842,80.47 L40.1842,80.47 L40.1842,70.47 L50.1842,70.47 L50.1842,80.47 Z M50.1842,70.47 L40.1842,70.47 L40.1842,60.47 L50.1842,60.47 L50.1842,70.47 Z M40.1842,70.47 L30.1842,70.47 L30.1842,60.47 L40.1842,60.47 L40.1842,70.47 Z M80.1842,40.47 L70.1842,40.47 L70.1842,30.47 L80.1842,30.47 L80.1842,40.47 Z M50.1842,60.47 L40.1842,60.47 L40.1842,50.47 L50.1842,50.47 L50.1842,60.47 Z M60.1842,50.47 L50.1842,50.47 L50.1842,40.47 L60.1842,40.47 L60.1842,50.47 Z M70.1842,40.47 L60.1842,40.47 L60.1842,30.47 L70.1842,30.47 L70.1842,40.47 Z M80.1842,30.47 L70.1842,30.47 L70.1842,20.47 L80.1842,20.47 L80.1842,30.47 Z" fill="#000000" sketch:type="MSShapeGroup"/></g></svg>