<svg fill="#000000" xmlns="http://www.w3.org/2000/svg" xmlns:xlink="http://www.w3.org/1999/xlink" xmlns:sketch="http://www.bohemiancoding.com/sketch/ns" viewBox="0 0 91 91" version="1.1" x="0px" y="0px"><title>rect13470</title><desc>Created with Sketch.</desc><g stroke="none" stroke-width="1" fill="none" fill-rule="evenodd" sketch:type="MSPage"><path d="M67.6842,45.47 L60.1842,45.47 L60.1842,37.97 L67.6842,37.97 L67.6842,45.47 Z M52.6842,30.47 L45.1842,30.47 L45.1842,22.97 L52.6842,22.97 L52.6842,30.47 Z M60.1842,52.97 L52.6842,52.97 L52.6842,45.47 L60.1842,45.47 L60.1842,52.97 Z M45.1842,37.97 L37.6842,37.97 L37.6842,30.47 L45.1842,30.47 L45.1842,37.97 Z M37.6842,45.47 L30.1842,45.47 L30.1842,37.97 L37.6842,37.97 L37.6842,45.47 Z M30.1842,52.97 L22.6842,52.97 L22.6842,45.47 L30.1842,45.47 L30.1842,52.97 Z M30.1842,60.47 L22.6842,60.47 L22.6842,52.97 L30.1842,52.97 L30.1842,60.47 Z M52.6842,60.47 L45.1842,60.47 L45.1842,52.97 L52.6842,52.97 L52.6842,60.47 Z M45.1842,67.97 L37.6842,67.97 L37.6842,60.47 L45.1842,60.47 L45.1842,67.97 Z M37.6842,67.97 L30.1842,67.97 L30.1842,60.47 L37.6842,60.47 L37.6842,67.97 Z M30.1842,75.47 L22.6842,75.47 L22.6842,67.97 L30.1842,67.97 L30.1842,75.47 Z M22.6842,67.97 L15.1842,67.97 L15.1842,60.47 L22.6842,60.47 L22.6842,67.97 Z M15.1842,75.47 L7.6842,75.47 L7.6842,67.97 L15.1842,67.97 L15.1842,75.47 Z M22.6842,82.97 L15.1842,82.97 L15.1842,75.47 L22.6842,75.47 L22.6842,82.97 Z M37.6842,82.97 L30.1842,82.97 L30.1842,75.47 L37.6842,75.47 L37.6842,82.97 Z M15.1842,60.47 L7.6842,60.47 L7.6842,52.97 L15.1842,52.97 L15.1842,60.47 Z M22.6842,75.47 L15.1842,75.47 L15.1842,67.97 L22.6842,67.97 L22.6842,75.47 Z M15.1842,82.97 L7.6842,82.97 L7.6842,75.47 L15.1842,75.47 L15.1842,82.97 Z M15.1842,90.47 L7.6842,90.47 L7.6842,82.97 L15.1842,82.97 L15.1842,90.47 Z M7.6842,82.97 L0.1842,82.97 L0.1842,75.47 L7.6842,75.47 L7.6842,82.97 Z M7.6842,90.47 L0.1842,90.47 L0.1842,82.97 L7.6842,82.97 L7.6842,90.47 Z M37.6842,75.47 L30.1842,75.47 L30.1842,67.97 L37.6842,67.97 L37.6842,75.47 Z M22.6842,60.47 L15.1842,60.47 L15.1842,52.97 L22.6842,52.97 L22.6842,60.47 Z M30.1842,67.97 L22.6842,67.97 L22.6842,60.47 L30.1842,60.47 L30.1842,67.97 Z M60.1842,22.97 L52.6842,22.97 L52.6842,15.47 L60.1842,15.47 L60.1842,22.97 Z M67.6842,15.47 L60.1842,15.47 L60.1842,7.97 L67.6842,7.97 L67.6842,15.47 Z M75.1842,7.97 L67.6842,7.97 L67.6842,0.47 L75.1842,0.47 L75.1842,7.97 Z M82.6842,7.97 L75.1842,7.97 L75.1842,0.47 L82.6842,0.47 L82.6842,7.97 Z M90.1842,7.97 L82.6842,7.97 L82.6842,0.47 L90.1842,0.47 L90.1842,7.97 Z M82.6842,30.47 L75.1842,30.47 L75.1842,22.97 L82.6842,22.97 L82.6842,30.47 Z M75.1842,37.97 L67.6842,37.97 L67.6842,30.47 L75.1842,30.47 L75.1842,37.97 Z M52.6842,82.97 L45.1842,82.97 L45.1842,75.47 L52.6842,75.47 L52.6842,82.97 Z M22.6842,52.97 L15.1842,52.97 L15.1842,45.47 L22.6842,45.47 L22.6842,52.97 Z M45.1842,75.47 L37.6842,75.47 L37.6842,67.97 L45.1842,67.97 L45.1842,75.47 Z M15.1842,52.97 L7.6842,52.97 L7.6842,45.47 L15.1842,45.47 L15.1842,52.97 Z M45.1842,82.97 L37.6842,82.97 L37.6842,75.47 L45.1842,75.47 L45.1842,82.97 Z M90.1842,22.97 L82.6842,22.97 L82.6842,15.47 L90.1842,15.47 L90.1842,22.97 Z M90.1842,15.47 L82.6842,15.47 L82.6842,7.97 L90.1842,7.97 L90.1842,15.47 Z M52.6842,75.47 L45.1842,75.47 L45.1842,67.97 L52.6842,67.97 L52.6842,75.47 Z M22.6842,45.47 L15.1842,45.47 L15.1842,37.97 L22.6842,37.97 L22.6842,45.47 Z M15.1842,45.47 L7.6842,45.47 L7.6842,37.97 L15.1842,37.97 L15.1842,45.47 Z" fill="#000000" sketch:type="MSShapeGroup"/></g></svg>