<svg xmlns="http://www.w3.org/2000/svg" xmlns:xlink="http://www.w3.org/1999/xlink" height="300px" width="300px" fill="#000000" version="1.1" x="0px" y="0px" viewBox="0 0 35 35" enable-background="new 0 0 35 35" xml:space="preserve"><g><path d="M24.5,4c-4-3.3-10-3.3-14,0C3.6,9.5,7.4,19.2,7.4,19.2s-2,2.5,2.2,4.5c0,0,0.7,1.6,0.3,4.8c0,0,0,1.5,2,1.8   c0,0,0.4,1.1,1.9,2.5c0.8,0.7,2,0.9,3,0.4l0.8-0.3l0.6,0.3c1,0.5,2.2,0.3,3-0.4c1.5-1.4,1.9-2.5,1.9-2.5c2-0.3,2-1.8,2-1.8   c-0.4-3.1,0.3-4.8,0.3-4.8c4.2-2,2.2-4.5,2.2-4.5S31.3,9.5,24.5,4z M24.5,8.8c0.2-0.2,0.6-0.2,0.8,0c0.2,0.2,0.2,0.6,0,0.9   c-0.2,0.2-1.2,0.4-1.2,0.4S24.3,9.1,24.5,8.8z M22.9,8.4c0.2-0.2,0.6-0.2,0.8,0C24,8.6,24,9,23.8,9.2c-0.2,0.2-1.2,0.4-1.2,0.4   S22.7,8.6,22.9,8.4z M19.5,16.5c0,0.3-0.2,0.6-0.6,0.6c-0.3,0-0.6-0.2-0.6-0.6c0-0.3,0.2-0.6,0.6-0.6   C19.2,15.9,19.5,16.2,19.5,16.5z M17,7l0.3-1l0.3,1h1l-0.8,0.6l0.3,1L17.3,8l-0.8,0.6l0.3-1L16,7H17z M17.3,11.9l-0.8-0.8   c-0.2-0.2-0.2-0.6,0-0.8c0.2-0.2,0.6-0.2,0.8,0l0,0l0,0c0.2-0.2,0.6-0.2,0.8,0c0.2,0.2,0.2,0.6,0,0.8L17.3,11.9z M17.9,15.4   c0,0.3-0.2,0.6-0.6,0.6c-0.3,0-0.6-0.2-0.6-0.6c0-0.3,0.2-0.6,0.6-0.6C17.6,14.8,17.9,15.1,17.9,15.4z M15.8,15.9   c0.3,0,0.6,0.2,0.6,0.6c0,0.3-0.2,0.6-0.6,0.6c-0.3,0-0.6-0.2-0.6-0.6C15.2,16.2,15.5,15.9,15.8,15.9z M10.9,8.4   c0.2-0.2,0.6-0.2,0.8,0c0.2,0.2,0.4,1.2,0.4,1.2s-1-0.1-1.2-0.4C10.6,9,10.6,8.6,10.9,8.4z M9.3,8.8c0.2-0.2,0.6-0.2,0.8,0   c0.2,0.2,0.4,1.2,0.4,1.2s-1-0.2-1.2-0.4C9,9.4,9,9.1,9.3,8.8z M7.7,9.3c0.2-0.2,0.6-0.2,0.8,0c0.2,0.2,0.4,1.2,0.4,1.2   s-1-0.2-1.2-0.4C7.4,9.9,7.4,9.5,7.7,9.3z M9.6,21l0.3,1l-0.8-0.6L8.2,22l0.3-1l-0.8-0.6h1l0.3-1l0.3,1h1L9.6,21z M9.5,14.6   c-0.7-0.7-0.7-1.7,0-2.4c0.7-0.7,1.7-0.7,2.4,0l0.1,0.1l0.1-0.1c0.7-0.7,1.7-0.7,2.4,0s0.7,1.7,0,2.4l-2.5,2.5L9.5,14.6z    M14.7,17.6c0,0.3-0.2,0.6-0.6,0.6c-0.3,0-0.6-0.2-0.6-0.6c0-0.3,0.2-0.6,0.6-0.6C14.5,17,14.7,17.3,14.7,17.6z M12.5,19.2   c-0.3,0-0.6-0.2-0.6-0.6c0-0.3,0.2-0.6,0.6-0.6c0.3,0,0.6,0.2,0.6,0.6C13.1,19,12.8,19.2,12.5,19.2z M13.6,24.7   c0.3,0,0.6,0.9,0.7,1.3c0,0.4-0.3,0.5-0.6,0.5c-0.3,0-0.6-0.1-0.6-0.5C13,25.6,13.2,24.7,13.6,24.7z M13.7,28.9   c-0.3,0-0.6-0.9-0.6-1.3c0-0.4,0.3-0.5,0.6-0.5c0.3,0,0.6,0.1,0.6,0.5C14.3,28,14,28.9,13.7,28.9z M15.1,28.9   c-0.3,0-0.6-0.9-0.6-1.3c0-0.4,0.3-0.5,0.6-0.5c0.3,0,0.6,0.1,0.6,0.5C15.7,28,15.5,28.9,15.1,28.9z M14.5,26   c0-0.4,0.3-1.3,0.6-1.3c0.3,0,0.6,0.9,0.6,1.3c0,0.4-0.3,0.5-0.6,0.5C14.8,26.5,14.5,26.4,14.5,26z M16.6,28.9   c-0.3,0-0.6-0.9-0.6-1.3c0-0.4,0.3-0.5,0.6-0.5s0.6,0.1,0.6,0.5C17.2,28,16.9,28.9,16.6,28.9z M16,26c0-0.4,0.3-1.3,0.6-1.3   c0.3,0,0.6,0.9,0.6,1.3c0,0.4-0.3,0.5-0.6,0.5C16.2,26.5,16,26.4,16,26z M18.1,28.9c-0.3,0-0.6-0.9-0.6-1.3c0-0.4,0.3-0.5,0.6-0.5   c0.3,0,0.6,0.1,0.6,0.5C18.7,28,18.4,28.9,18.1,28.9z M18.1,26.5c-0.3,0-0.6-0.1-0.6-0.5c0-0.4,0.3-1.3,0.6-1.3   c0.3,0,0.6,0.9,0.6,1.3C18.7,26.4,18.4,26.5,18.1,26.5z M19.5,28.9c-0.3,0-0.6-0.9-0.6-1.3c0-0.4,0.3-0.5,0.6-0.5   c0.3,0,0.6,0.1,0.6,0.5C20.2,28,19.9,28.9,19.5,28.9z M19.6,26.5c-0.3,0-0.6-0.1-0.6-0.5c0-0.4,0.3-1.3,0.6-1.3   c0.3,0,0.6,0.9,0.6,1.3C20.2,26.4,19.9,26.5,19.6,26.5z M19.8,22.2c-0.7,0.7-1.7,0.7-2.4,0l-0.1-0.1l-0.1,0.1   c-0.7,0.7-1.7,0.7-2.4,0c-0.7-0.7-0.7-1.7,0-2.4l2.5-2.5l2.5,2.5C20.5,20.4,20.5,21.5,19.8,22.2z M20,17.6c0-0.3,0.2-0.6,0.6-0.6   c0.3,0,0.6,0.2,0.6,0.6c0,0.3-0.2,0.6-0.6,0.6C20.2,18.1,20,17.9,20,17.6z M21,28.9c-0.3,0-0.6-0.9-0.6-1.3c0-0.4,0.3-0.5,0.6-0.5   c0.3,0,0.6,0.1,0.6,0.5C21.6,28,21.3,28.9,21,28.9z M21,26.5c-0.3,0-0.6-0.1-0.6-0.5c0-0.4,0.3-1.3,0.7-1.3c0.3,0,0.6,0.9,0.6,1.3   C21.7,26.4,21.4,26.5,21,26.5z M22.1,19.2c-0.3,0-0.6-0.2-0.6-0.6c0-0.3,0.2-0.6,0.6-0.6c0.3,0,0.6,0.2,0.6,0.6   C22.7,19,22.4,19.2,22.1,19.2z M22.7,17.1l-2.5-2.5c-0.7-0.7-0.7-1.7,0-2.4c0.7-0.7,1.7-0.7,2.4,0l0.1,0.1l0.1-0.1   c0.7-0.7,1.7-0.7,2.4,0c0.7,0.7,0.7,1.7,0,2.4L22.7,17.1z M26.4,22l-0.8-0.6L24.8,22l0.3-1l-0.8-0.6h1l0.3-1l0.3,1h1L26.1,21   L26.4,22z M27,10.1c-0.2,0.2-1.2,0.4-1.2,0.4s0.2-1,0.4-1.2c0.2-0.2,0.6-0.2,0.8,0C27.2,9.5,27.2,9.9,27,10.1z"/></g></svg>